<?xml version="1.0" encoding="UTF-8" standalone="no"?>
<svg
   xmlns:dc="http://purl.org/dc/elements/1.1/"
   xmlns:cc="http://creativecommons.org/ns#"
   xmlns:rdf="http://www.w3.org/1999/02/22-rdf-syntax-ns#"
   xmlns:svg="http://www.w3.org/2000/svg"
   xmlns="http://www.w3.org/2000/svg"
   xmlns:sodipodi="http://sodipodi.sourceforge.net/DTD/sodipodi-0.dtd"
   xmlns:inkscape="http://www.inkscape.org/namespaces/inkscape"
   inkscape:version="1.0 (4035a4fb49, 2020-05-01)"
   sodipodi:docname="x2test-24px.svg"
   id="svg158"
   version="1.1"
   width="24"
   viewBox="0 0 24 24"
   height="24">
  <metadata
     id="metadata164">
    <rdf:RDF>
      <cc:Work
         rdf:about="">
        <dc:format>image/svg+xml</dc:format>
        <dc:type
           rdf:resource="http://purl.org/dc/dcmitype/StillImage" />
        <dc:title></dc:title>
      </cc:Work>
    </rdf:RDF>
  </metadata>
  <defs
     id="defs162" />
  <sodipodi:namedview
     inkscape:current-layer="svg158"
     inkscape:window-maximized="0"
     inkscape:window-y="116"
     inkscape:window-x="560"
     inkscape:cy="12.41637"
     inkscape:cx="17.995265"
     inkscape:zoom="17.775867"
     showgrid="false"
     id="namedview160"
     inkscape:window-height="1049"
     inkscape:window-width="1437"
     inkscape:pageshadow="2"
     inkscape:pageopacity="0"
     guidetolerance="10"
     gridtolerance="10"
     objecttolerance="10"
     borderopacity="1"
     bordercolor="#666666"
     pagecolor="#ffffff"
     inkscape:document-rotation="0" />
  <path
     id="path548"
     style="font-size:14.6667px"
     d="M 11.483435,8.8010362 8.5830374,12.70404 11.633826,16.821888 h -1.55404 L 7.7451449,13.670839 5.4105041,16.821888 h -1.55404 L 6.9717056,12.625264 4.1214387,8.8010362 h 1.55404 l 2.126958,2.8574288 2.126958,-2.8574288 z" />
  <path
     id="path550"
     style="font-size:14.6667px"
     d="m 14.928104,15.604437 h 5.04884 v 1.217451 h -6.789078 v -1.217451 q 0.823569,-0.852215 2.241541,-2.28451 1.425134,-1.439457 1.790369,-1.854822 0.694663,-0.780601 0.966799,-1.317712 0.279298,-0.5442716 0.279298,-1.0670593 0,-0.8522155 -0.601564,-1.3893261 -0.594403,-0.5371106 -1.55404,-0.5371106 -0.68034,0 -1.439457,0.2363287 -0.751954,0.2363286 -1.611331,0.7161475 V 6.6454323 Q 14.13318,6.29452 14.892297,6.1154832 q 0.759116,-0.1790369 1.389326,-0.1790369 1.661462,0 2.649746,0.8307311 0.988283,0.830731 0.988283,2.2200572 0,0.6588556 -0.250652,1.2532584 -0.24349,0.587241 -0.895184,1.389326 -0.179037,0.207683 -1.138674,1.203128 -0.959638,0.988283 -2.707038,2.77149 z" />
  <path
     id="path154"
     fill="none"
     d="M0 0h24v24H0V0z" />
</svg>
